<?xml version="1.0" standalone="no"?><!DOCTYPE svg PUBLIC "-//W3C//DTD SVG 1.1//EN"
        "http://www.w3.org/Graphics/SVG/1.1/DTD/svg11.dtd">
<svg t="1761618483037" class="icon" viewBox="0 0 1024 1024" version="1.1" xmlns="http://www.w3.org/2000/svg" p-id="6100"
     width="48" height="48">
    <path d="M917.333333 533.333333a42.666667 42.666667 0 0 1 42.56 39.466667L960 576v256a128 128 0 0 1-123.2 127.914667L832 960H192a128 128 0 0 1-127.914667-123.2L64 832V576a42.666667 42.666667 0 0 1 85.226667-3.2L149.333333 576v256a42.666667 42.666667 0 0 0 39.466667 42.56L192 874.666667h640a42.666667 42.666667 0 0 0 42.56-39.466667L874.666667 832V576a42.666667 42.666667 0 0 1 42.666666-42.666667zM512 64a42.666667 42.666667 0 0 1 42.56 39.466667L554.666667 106.666667v448h39.232a42.666667 42.666667 0 0 1 33.301333 69.333333l-81.877333 102.357333a42.666667 42.666667 0 0 1-66.645334 0L396.8 623.978667A42.666667 42.666667 0 0 1 430.08 554.666667H469.333333V106.666667a42.666667 42.666667 0 0 1 42.666667-42.666667z"
          fill="#fff" p-id="6101"></path>
</svg>